<svg xmlns="http://www.w3.org/2000/svg" viewBox="0 0 171.1 177.06"><defs><style>.cls-1{fill:#242d6d;}.cls-2{fill:#232d6d;}.cls-3{fill:#48b8e9;}</style></defs><g id="Layer_2" data-name="Layer 2"><g id="Layer_1-2" data-name="Layer 1"><path class="cls-1" d="M163.27,107.39a67.27,67.27,0,0,1-4.05,7.29c-6.44,10-14.13,17.82-25.49,23.45l-33.68-34.86c6.17-1.53,11.45-3.91,15.26-7.06,5-4.11,9.29-8.85,10.8-15.29a29.7,29.7,0,0,0,.47-11.19Z"/><path class="cls-2" d="M103.48,46A56.89,56.89,0,0,0,93.15,44.9c-16-.43-49.58-.1-49.58-.1L.28,0H58.64Z"/><path class="cls-3" d="M133.85,138.13l-33.57-34.86L45.63,46.53h0L.28,0,.43,64.06l75.94,78.32,33.5,34.53,61.2-.13Z"/><path class="cls-3" d="M171.1,71.53a83.06,83.06,0,0,1-7.83,35.86L126.58,69.73a28.31,28.31,0,0,0-3.47-10,27.85,27.85,0,0,0-9.85-10A32.48,32.48,0,0,0,103.48,46L58.64,0H84.82q26.12,0,45.36,8.71T159.8,33.42A69.24,69.24,0,0,1,171.1,71.53Z"/><polygon class="cls-3" points="0.14 177.06 0 116.45 58.64 177.06 0.14 177.06"/></g></g></svg>