<svg width="21" height="26" viewBox="0 0 21 26" fill="none" xmlns="http://www.w3.org/2000/svg">
<path d="M6.33333 1V25M2.33333 1H17C17.7072 1 18.3855 1.28095 18.8856 1.78105C19.3857 2.28115 19.6667 2.95942 19.6667 3.66667V19.6667C19.6667 20.3739 19.3857 21.0522 18.8856 21.5523C18.3855 22.0524 17.7072 22.3333 17 22.3333H2.33333C1.97971 22.3333 1.64057 22.1929 1.39052 21.9428C1.14048 21.6928 1 21.3536 1 21V2.33333C1 1.97971 1.14048 1.64057 1.39052 1.39052C1.64057 1.14048 1.97971 1 2.33333 1Z" stroke="#7C7C7C" stroke-width="2" stroke-linecap="round" stroke-linejoin="round"/>
<path d="M11.6665 6.33336H14.3332" stroke="#7C7C7C" stroke-width="2" stroke-linecap="round" stroke-linejoin="round"/>
<path d="M11.6665 11.6666H14.3332" stroke="#7C7C7C" stroke-width="2" stroke-linecap="round" stroke-linejoin="round"/>
</svg>
