<svg width="23" height="23" viewBox="0 0 23 23" fill="none" xmlns="http://www.w3.org/2000/svg">
<mask id="path-1-inside-1_13_2574" fill="white">
<path d="M0.973142 4.75008C1.46546 2.53464 3.43045 0.958374 5.69994 0.958374H17.2999C19.5694 0.958374 21.5345 2.53464 22.0268 4.75008L22.2046 5.55071C23.1272 9.70164 23.1272 14.0046 22.2046 18.1555L22.0268 18.9561C21.5345 21.1716 19.5694 22.7478 17.2999 22.7478H5.69994C3.43045 22.7478 1.46546 21.1716 0.973142 18.9561L0.795218 18.1555C-0.127215 14.0046 -0.127215 9.70164 0.795218 5.55071L0.973142 4.75008Z"/>
</mask>
<path d="M0.973142 4.75008C1.46546 2.53464 3.43045 0.958374 5.69994 0.958374H17.2999C19.5694 0.958374 21.5345 2.53464 22.0268 4.75008L22.2046 5.55071C23.1272 9.70164 23.1272 14.0046 22.2046 18.1555L22.0268 18.9561C21.5345 21.1716 19.5694 22.7478 17.2999 22.7478H5.69994C3.43045 22.7478 1.46546 21.1716 0.973142 18.9561L0.795218 18.1555C-0.127215 14.0046 -0.127215 9.70164 0.795218 5.55071L0.973142 4.75008Z" stroke="#7C7C7C" stroke-width="4" stroke-linecap="round" stroke-linejoin="round" mask="url(#path-1-inside-1_13_2574)"/>
<path d="M2 13H8.33784C8.33784 14 9.31081 16 11.7432 16C14.1757 16 15.1486 14 15.1486 13H21" stroke="#7C7C7C" stroke-width="2" stroke-linejoin="round"/>
</svg>
