<svg width="176" height="35" viewBox="0 0 176 35" fill="none" xmlns="http://www.w3.org/2000/svg">
<path d="M16.46 22.815V26H0.395V1.57H3.58V22.815H16.46ZM20.071 26V8.15H23.256V26H20.071ZM23.396 0.939999V4.37H19.966V0.939999H23.396ZM32.2103 10.39C33.8669 8.66333 35.8269 7.8 38.0903 7.8C40.3536 7.8 42.3253 8.64 44.0053 10.32C45.7086 12 46.5603 14.2517 46.5603 17.075C46.5603 19.8983 45.7086 22.15 44.0053 23.83C42.3253 25.51 40.3536 26.35 38.0903 26.35C35.8269 26.35 33.8669 25.4867 32.2103 23.76H32.1053L31.7203 26H28.9203V0.449999H32.1053V10.39H32.2103ZM37.6353 23.375C39.3619 23.375 40.7503 22.8267 41.8003 21.73C42.8503 20.6333 43.3753 19.0817 43.3753 17.075C43.3753 15.0683 42.8503 13.5167 41.8003 12.42C40.7503 11.3233 39.3619 10.775 37.6353 10.775C35.5353 10.775 33.6919 11.65 32.1053 13.4V20.75C33.6919 22.5 35.5353 23.375 37.6353 23.375ZM60.8354 7.8H61.1154V10.845H60.8354C59.4587 10.845 58.1754 11.1133 56.9854 11.65C55.7954 12.1867 54.862 12.9333 54.1854 13.89V26H51.0004V8.15H53.8004L54.1854 10.39V10.915H54.2554C55.9354 8.83833 58.1287 7.8 60.8354 7.8ZM64.8505 9.13C66.8805 8.24333 69.0505 7.8 71.3605 7.8C73.6938 7.8 75.4788 8.47667 76.7155 9.83C77.9522 11.1833 78.5705 12.805 78.5705 14.695V26H75.7705L75.3855 23.76H75.2805C73.6005 25.4867 71.4422 26.35 68.8055 26.35C67.2188 26.35 65.8655 25.8717 64.7455 24.915C63.6488 23.9583 63.1005 22.6517 63.1005 20.995C63.1005 19.3383 63.7772 17.9967 65.1305 16.97C66.5072 15.9433 68.5138 15.43 71.1505 15.43H75.3855V15.15C75.3855 13.61 75.0005 12.5017 74.2305 11.825C73.4838 11.1483 72.1772 10.81 70.3105 10.81C68.4438 10.81 66.6938 11.2067 65.0605 12H64.8505V9.13ZM75.3855 20.925V17.985H71.5705C68.0472 17.985 66.2855 18.9183 66.2855 20.785C66.2855 22.6283 67.5222 23.55 69.9955 23.55C71.0222 23.55 72.0138 23.305 72.9705 22.815C73.9272 22.3017 74.7322 21.6717 75.3855 20.925ZM93.7846 7.8H94.0646V10.845H93.7846C92.4079 10.845 91.1246 11.1133 89.9346 11.65C88.7446 12.1867 87.8112 12.9333 87.1346 13.89V26H83.9496V8.15H86.7496L87.1346 10.39V10.915H87.2046C88.8846 8.83833 91.0779 7.8 93.7846 7.8ZM113.235 8.15L102.49 34.05H99.2697L102.28 26.28L94.8947 8.15H98.3247L103.925 22.255H104.065L109.805 8.15H113.235ZM120.071 18.9785H115.657L115.638 18.4512H119.271C120.13 18.4512 120.849 18.3405 121.429 18.1191C122.015 17.8978 122.454 17.5592 122.747 17.1035C123.04 16.6478 123.187 16.0749 123.187 15.3848C123.187 14.7012 123.03 14.1315 122.718 13.6758C122.412 13.2201 121.953 12.8783 121.341 12.6504C120.735 12.4225 119.98 12.3086 119.075 12.3086H115.862V26H115.335V11.7812H119.075C119.791 11.7812 120.436 11.8529 121.009 11.9961C121.582 12.1393 122.07 12.3607 122.474 12.6602C122.877 12.9596 123.187 13.3405 123.401 13.8027C123.616 14.2585 123.724 14.7988 123.724 15.4238C123.724 16.0098 123.613 16.5371 123.392 17.0059C123.177 17.4746 122.861 17.8555 122.444 18.1484C122.028 18.4414 121.513 18.6204 120.901 18.6855L120.071 18.9785ZM119.974 26H115.638L115.804 25.4727H119.974C120.774 25.4727 121.461 25.3392 122.034 25.0723C122.614 24.8053 123.06 24.4212 123.372 23.9199C123.685 23.4121 123.841 22.8066 123.841 22.1035C123.841 21.5566 123.701 21.0456 123.421 20.5703C123.147 20.0951 122.731 19.7109 122.171 19.418C121.611 19.125 120.911 18.9785 120.071 18.9785H117.767L117.786 18.4512H121.155L121.194 18.6367C121.793 18.7083 122.33 18.9069 122.806 19.2324C123.287 19.5579 123.668 19.9714 123.948 20.4727C124.228 20.9674 124.368 21.5046 124.368 22.084C124.368 22.9238 124.179 23.6367 123.802 24.2227C123.431 24.8021 122.916 25.2448 122.259 25.5508C121.601 25.8503 120.84 26 119.974 26ZM137.474 17.8262V19.9551C137.474 20.8796 137.347 21.7259 137.093 22.4941C136.845 23.2559 136.487 23.9134 136.019 24.4668C135.556 25.0202 134.996 25.4466 134.339 25.7461C133.681 26.0456 132.942 26.1953 132.122 26.1953C131.308 26.1953 130.569 26.0456 129.905 25.7461C129.248 25.4466 128.681 25.0202 128.206 24.4668C127.737 23.9134 127.376 23.2559 127.122 22.4941C126.875 21.7259 126.751 20.8796 126.751 19.9551V17.8262C126.751 16.8952 126.875 16.0488 127.122 15.2871C127.376 14.5254 127.737 13.8678 128.206 13.3145C128.675 12.7611 129.238 12.3346 129.896 12.0352C130.553 11.7357 131.289 11.5859 132.103 11.5859C132.923 11.5859 133.662 11.7357 134.319 12.0352C134.977 12.3346 135.54 12.7611 136.009 13.3145C136.484 13.8678 136.845 14.5254 137.093 15.2871C137.347 16.0488 137.474 16.8952 137.474 17.8262ZM136.946 19.9551V17.8066C136.946 16.9733 136.839 16.2116 136.624 15.5215C136.409 14.8249 136.093 14.2227 135.677 13.7148C135.26 13.207 134.752 12.8132 134.153 12.5332C133.554 12.2533 132.871 12.1133 132.103 12.1133C131.341 12.1133 130.66 12.2533 130.062 12.5332C129.469 12.8132 128.965 13.207 128.548 13.7148C128.138 14.2227 127.825 14.8249 127.61 15.5215C127.396 16.2116 127.288 16.9733 127.288 17.8066V19.9551C127.288 20.7949 127.396 21.5632 127.61 22.2598C127.832 22.9564 128.147 23.5586 128.558 24.0664C128.974 24.5742 129.482 24.9681 130.081 25.248C130.68 25.528 131.36 25.668 132.122 25.668C132.89 25.668 133.571 25.528 134.163 25.248C134.762 24.9681 135.267 24.5742 135.677 24.0664C136.093 23.5586 136.409 22.9564 136.624 22.2598C136.839 21.5632 136.946 20.7949 136.946 19.9551ZM150.794 17.8262V19.9551C150.794 20.8796 150.667 21.7259 150.413 22.4941C150.166 23.2559 149.808 23.9134 149.339 24.4668C148.877 25.0202 148.317 25.4466 147.659 25.7461C147.002 26.0456 146.263 26.1953 145.442 26.1953C144.629 26.1953 143.89 26.0456 143.226 25.7461C142.568 25.4466 142.002 25.0202 141.526 24.4668C141.058 23.9134 140.696 23.2559 140.442 22.4941C140.195 21.7259 140.071 20.8796 140.071 19.9551V17.8262C140.071 16.8952 140.195 16.0488 140.442 15.2871C140.696 14.5254 141.058 13.8678 141.526 13.3145C141.995 12.7611 142.558 12.3346 143.216 12.0352C143.873 11.7357 144.609 11.5859 145.423 11.5859C146.243 11.5859 146.982 11.7357 147.64 12.0352C148.297 12.3346 148.86 12.7611 149.329 13.3145C149.804 13.8678 150.166 14.5254 150.413 15.2871C150.667 16.0488 150.794 16.8952 150.794 17.8262ZM150.267 19.9551V17.8066C150.267 16.9733 150.159 16.2116 149.944 15.5215C149.729 14.8249 149.414 14.2227 148.997 13.7148C148.58 13.207 148.073 12.8132 147.474 12.5332C146.875 12.2533 146.191 12.1133 145.423 12.1133C144.661 12.1133 143.981 12.2533 143.382 12.5332C142.789 12.8132 142.285 13.207 141.868 13.7148C141.458 14.2227 141.146 14.8249 140.931 15.5215C140.716 16.2116 140.608 16.9733 140.608 17.8066V19.9551C140.608 20.7949 140.716 21.5632 140.931 22.2598C141.152 22.9564 141.468 23.5586 141.878 24.0664C142.295 24.5742 142.802 24.9681 143.401 25.248C144 25.528 144.681 25.668 145.442 25.668C146.211 25.668 146.891 25.528 147.483 25.248C148.082 24.9681 148.587 24.5742 148.997 24.0664C149.414 23.5586 149.729 22.9564 149.944 22.2598C150.159 21.5632 150.267 20.7949 150.267 19.9551ZM154.573 11.7812V26H154.046V11.7812H154.573ZM163.577 11.7812L157.22 18.1777L154.358 20.8145L154.437 20.1309L156.897 17.7285L162.815 11.7812H163.577ZM163.382 26L156.683 18.334L157.005 17.875L164.065 26H163.382ZM175.257 22.5918C175.257 22.1426 175.179 21.7422 175.022 21.3906C174.866 21.0391 174.616 20.7233 174.271 20.4434C173.925 20.1634 173.473 19.9062 172.913 19.6719C172.36 19.4375 171.679 19.2096 170.872 18.9883C170.149 18.793 169.498 18.5846 168.919 18.3633C168.34 18.1354 167.845 17.875 167.435 17.582C167.031 17.2891 166.722 16.9408 166.507 16.5371C166.292 16.127 166.185 15.6354 166.185 15.0625C166.185 14.5221 166.302 14.0371 166.536 13.6074C166.777 13.1777 167.109 12.8132 167.532 12.5137C167.962 12.2142 168.463 11.9863 169.036 11.8301C169.609 11.6673 170.231 11.5859 170.901 11.5859C171.826 11.5859 172.643 11.7617 173.353 12.1133C174.062 12.4648 174.619 12.9564 175.022 13.5879C175.433 14.2129 175.638 14.9453 175.638 15.7852H175.11C175.11 15.082 174.935 14.4538 174.583 13.9004C174.231 13.347 173.74 12.9108 173.108 12.5918C172.483 12.2728 171.748 12.1133 170.901 12.1133C170.009 12.1133 169.251 12.25 168.626 12.5234C168.001 12.7969 167.526 13.1582 167.2 13.6074C166.875 14.0501 166.712 14.5286 166.712 15.043C166.712 15.4206 166.777 15.7721 166.907 16.0977C167.044 16.4232 167.272 16.7259 167.591 17.0059C167.91 17.2793 168.349 17.5397 168.909 17.7871C169.469 18.028 170.172 18.2591 171.019 18.4805C171.722 18.6628 172.363 18.8678 172.942 19.0957C173.528 19.3236 174.033 19.5938 174.456 19.9062C174.886 20.2188 175.215 20.5931 175.442 21.0293C175.677 21.459 175.794 21.9733 175.794 22.5723C175.794 23.1517 175.667 23.666 175.413 24.1152C175.166 24.5645 174.821 24.9453 174.378 25.2578C173.935 25.5638 173.421 25.7982 172.835 25.9609C172.256 26.1172 171.634 26.1953 170.97 26.1953C170.364 26.1953 169.752 26.1237 169.134 25.9805C168.515 25.8372 167.949 25.6061 167.435 25.2871C166.92 24.9616 166.507 24.5286 166.194 23.9883C165.882 23.4479 165.726 22.7806 165.726 21.9863H166.253C166.253 22.696 166.399 23.2884 166.692 23.7637C166.985 24.2389 167.366 24.6165 167.835 24.8965C168.31 25.1699 168.821 25.3685 169.368 25.4922C169.922 25.6094 170.455 25.668 170.97 25.668C171.803 25.668 172.542 25.5378 173.187 25.2773C173.831 25.0169 174.336 24.6556 174.7 24.1934C175.071 23.7311 175.257 23.1973 175.257 22.5918Z" fill="#515151"/>
</svg>
